<svg width="32" height="31" viewBox="0 0 32 31" fill="none" xmlns="http://www.w3.org/2000/svg">
<g opacity="0.5">
<path fill-rule="evenodd" clip-rule="evenodd" d="M16.0039 22.5119C14.0082 22.5336 12.088 21.7503 10.6768 20.3391C9.26551 18.9278 8.48231 17.0076 8.50391 15.0119C8.48255 13.0163 9.26588 11.0962 10.677 9.68504C12.0883 8.27387 14.0083 7.49055 16.0039 7.51191C17.9996 7.49027 19.9198 8.27351 21.3311 9.68473C22.7423 11.096 23.5255 13.0162 23.5039 15.0119C23.5255 17.0076 22.7423 18.9279 21.3311 20.3391C19.9198 21.7503 17.9995 22.5336 16.0039 22.5119V22.5119ZM16.0039 10.5119C14.8021 10.4843 13.6415 10.9495 12.7915 11.7995C11.9415 12.6495 11.4763 13.8102 11.5039 15.0119C11.4763 16.2136 11.9415 17.3744 12.7915 18.2243C13.6415 19.0743 14.8021 19.5396 16.0039 19.5119C17.2057 19.5396 18.3663 19.0743 19.2163 18.2243C20.0663 17.3744 20.5315 16.2136 20.5039 15.0119C20.5315 13.8102 20.0663 12.6495 19.2163 11.7995C18.3663 10.9495 17.2057 10.4843 16.0039 10.5119V10.5119Z" fill="white"/>
<path fill-rule="evenodd" clip-rule="evenodd" d="M23.4321 30.31H15.855C7.48517 30.31 0.700012 23.5249 0.700012 15.155C0.700012 6.78513 7.48517 0 15.855 0C24.2249 0 31.0101 6.78513 31.0101 15.155V17.428C31.0109 19.323 30.0003 21.0749 28.3588 22.023C26.7175 22.971 24.6949 22.9711 23.0534 22.0232C21.412 21.0752 20.4012 19.3233 20.402 17.4278V15.155H23.433V17.428C23.4337 18.6828 24.4511 19.6997 25.706 19.6998C26.9609 19.6998 27.9783 18.6829 27.9791 17.428V15.155C27.9791 8.45911 22.551 3.03101 15.855 3.03101C9.15912 3.03101 3.73102 8.45911 3.73102 15.155C3.73102 21.8509 9.15912 27.279 15.855 27.279H23.4321V30.31Z" fill="white"/>
</g>
</svg>
