<svg width="27" height="32" viewBox="0 0 27 32" fill="none" xmlns="http://www.w3.org/2000/svg">
<g opacity="0.5">
<path fill-rule="evenodd" clip-rule="evenodd" d="M13.152 15.6C15.0935 15.6267 16.9604 14.8531 18.314 13.461C19.7059 12.1076 20.4795 10.2412 20.453 8.29996C20.4797 6.3585 19.7061 4.49162 18.314 3.13798C15.4633 0.287666 10.8417 0.287666 7.99103 3.13798C6.59888 4.49152 5.82526 6.35847 5.85199 8.29996C5.82526 10.2416 6.59888 12.1085 7.99103 13.462C9.34466 14.8533 11.2111 15.6265 13.152 15.6V15.6ZM9.24701 4.39497C10.2827 3.35886 11.6876 2.77677 13.1525 2.77677C14.6174 2.77677 16.0223 3.35886 17.058 4.39497C18.1178 5.41441 18.7042 6.82975 18.676 8.29996C18.7045 9.77052 18.118 11.1863 17.058 12.206C16.0224 13.2421 14.6175 13.8242 13.1525 13.8242C11.6876 13.8242 10.2827 13.2421 9.24701 12.206C8.18652 11.1866 7.59967 9.77073 7.62799 8.29996C7.59967 6.82923 8.18652 5.4134 9.24701 4.39399V4.39497Z" fill="white"/>
<path d="M18.314 13.461L18.0699 13.2099L18.0631 13.217L18.314 13.461ZM20.453 8.29996L20.1029 8.29515L20.103 8.30474L20.453 8.29996ZM18.314 3.13798L18.0665 3.38551L18.07 3.3889L18.314 3.13798ZM7.99103 3.13798L8.23503 3.38894L8.2385 3.38548L7.99103 3.13798ZM5.85199 8.29996L6.20209 8.30478L6.20196 8.29515L5.85199 8.29996ZM7.99103 13.462L8.24198 13.2178L8.23501 13.2111L7.99103 13.462ZM9.24701 4.39497H8.89701V5.2402L9.49455 4.6424L9.24701 4.39497ZM17.058 4.39497L16.8105 4.64245L16.8154 4.6472L17.058 4.39497ZM18.676 8.29996L18.3258 8.29325L18.3261 8.30675L18.676 8.29996ZM17.058 12.206L16.8154 11.9537L16.8105 11.9585L17.058 12.206ZM9.24701 12.206L9.4946 11.9585L9.48956 11.9536L9.24701 12.206ZM7.62799 8.29996L7.97818 8.30671L7.97793 8.29323L7.62799 8.29996ZM9.24701 4.39399H9.59701V3.57206L9.00446 4.14166L9.24701 4.39399ZM13.1472 15.95C15.1849 15.978 17.1443 15.1661 18.565 13.705L18.0631 13.217C16.7766 14.5402 15.0021 15.2754 13.1569 15.25L13.1472 15.95ZM18.558 13.7119C20.0188 12.2915 20.8308 10.3326 20.803 8.29519L20.103 8.30474C20.1282 10.1497 19.3929 11.9238 18.07 13.21L18.558 13.7119ZM20.803 8.30477C20.831 6.26711 20.019 4.30775 18.558 2.88705L18.07 3.3889C19.3931 4.67548 20.1284 6.44988 20.103 8.29516L20.803 8.30477ZM18.5615 2.89047C15.574 -0.0964965 10.7309 -0.0965003 7.74356 2.89047L8.2385 3.38548C10.9525 0.671833 15.3525 0.671829 18.0666 3.38548L18.5615 2.89047ZM7.74704 2.88704C6.28591 4.30765 5.47396 6.26709 5.50202 8.30478L6.20196 8.29515C6.17655 6.44984 6.91184 4.6754 8.23501 3.38892L7.74704 2.88704ZM5.50202 8.29515C5.47396 10.3329 6.28591 12.2923 7.74704 13.713L8.23501 13.2111C6.91184 11.9246 6.17655 10.1502 6.20196 8.30478L5.50202 8.29515ZM7.74017 13.7061C9.16085 15.1663 11.1197 15.9778 13.1568 15.95L13.1473 15.25C11.3024 15.2752 9.52847 14.5403 8.24189 13.2179L7.74017 13.7061ZM9.49455 4.6424C10.4645 3.67197 11.7804 3.12677 13.1525 3.12677V2.42677C11.5947 2.42677 10.1008 3.04576 8.99947 4.14753L9.49455 4.6424ZM13.1525 3.12677C14.5246 3.12677 15.8404 3.67197 16.8105 4.64241L17.3056 4.14753C16.2042 3.04576 14.7103 2.42677 13.1525 2.42677V3.12677ZM16.8154 4.6472C17.8049 5.59904 18.3524 6.92053 18.3261 8.29325L19.026 8.30668C19.056 6.73897 18.4307 5.22977 17.3007 4.14273L16.8154 4.6472ZM18.3261 8.30675C18.3527 9.67977 17.8051 11.0017 16.8154 11.9537L17.3007 12.4582C18.431 11.3709 19.0564 9.86126 19.026 8.29318L18.3261 8.30675ZM16.8105 11.9585C15.8405 12.929 14.5246 13.4742 13.1525 13.4742V14.1742C14.7103 14.1742 16.2043 13.5552 17.3056 12.4534L16.8105 11.9585ZM13.1525 13.4742C11.7804 13.4742 10.4646 12.929 9.49455 11.9585L8.99947 12.4534C10.1008 13.5552 11.5947 14.1742 13.1525 14.1742V13.4742ZM9.48956 11.9536C8.49942 11.0019 7.95148 9.67992 7.97793 8.3067L7.27805 8.29323C7.24786 9.86153 7.87363 11.3713 9.00446 12.4583L9.48956 11.9536ZM7.97793 8.29323C7.95148 6.92004 8.49941 5.59811 9.48956 4.64632L9.00446 4.14166C7.87363 5.22869 7.24786 6.73842 7.27805 8.3067L7.97793 8.29323ZM8.89701 4.39399V4.39497H9.59701V4.39399H8.89701Z" fill="white"/>
<path fill-rule="evenodd" clip-rule="evenodd" d="M25.9261 24.307C25.8783 23.6648 25.7962 23.0255 25.68 22.392C25.5655 21.7404 25.4081 21.097 25.209 20.466C25.008 19.8403 24.7425 19.237 24.417 18.666C24.097 18.0922 23.6951 17.568 23.224 17.11C22.7275 16.6434 22.145 16.2776 21.5091 16.033C20.8112 15.7627 20.0684 15.6269 19.32 15.633C18.8837 15.6789 18.4707 15.8528 18.133 16.133C17.7771 16.365 17.3611 16.633 16.8971 16.933C16.3946 17.2315 15.8572 17.4666 15.297 17.633C14.0271 18.0545 12.655 18.0545 11.385 17.633C10.8248 17.4668 10.2873 17.2317 9.78506 16.933C9.32504 16.639 8.90903 16.3711 8.54806 16.133C8.21078 15.8529 7.79806 15.6789 7.36203 15.633C6.61362 15.6267 5.87088 15.7625 5.17306 16.033C4.53702 16.2775 3.95456 16.6433 3.45804 17.11C2.98709 17.5678 2.58517 18.0916 2.26504 18.665C1.93967 19.2361 1.67428 19.8393 1.47305 20.465C1.27414 21.0957 1.11679 21.7387 1.00204 22.39C0.885649 23.0238 0.803496 23.6634 0.756071 24.306C0.716032 24.885 0.695036 25.487 0.695036 26.096C0.631743 27.5197 1.17502 28.9036 2.19003 29.904C3.23904 30.8606 4.62362 31.3639 6.04202 31.304H20.641C22.0595 31.3637 23.444 30.8606 24.493 29.904C25.5101 28.9046 26.0553 27.5205 25.993 26.096C25.993 25.485 25.972 24.883 25.932 24.306L25.9261 24.307ZM23.268 28.618C22.5492 29.2608 21.6037 29.5905 20.641 29.534H6.04703C5.0845 29.5907 4.13907 29.2614 3.42001 28.619C2.76028 27.9517 2.41714 27.0344 2.47702 26.098C2.47702 25.53 2.49606 24.969 2.53305 24.431C2.57602 23.8524 2.65011 23.2766 2.75503 22.706C2.85568 22.1309 2.99399 21.563 3.16904 21.006C3.33298 20.4985 3.54873 20.0092 3.81302 19.546C4.04831 19.1223 4.34372 18.735 4.69003 18.396C5.0209 18.088 5.40842 17.8473 5.83102 17.687C6.27829 17.5157 6.75217 17.4243 7.23105 17.417C7.29306 17.45 7.40402 17.517 7.58304 17.63C7.94803 17.868 8.36905 18.139 8.83401 18.437C9.4628 18.8198 10.1371 19.1221 10.841 19.337C12.4648 19.8723 14.2174 19.8723 15.841 19.337C16.5457 19.1222 17.2206 18.8198 17.8501 18.437C18.326 18.137 18.735 17.869 19.1001 17.631C19.279 17.514 19.39 17.451 19.4521 17.418C19.9309 17.4254 20.4048 17.5167 20.852 17.688C21.2746 17.8485 21.6621 18.0892 21.993 18.397C22.3395 18.7359 22.6349 19.1233 22.87 19.547C23.1345 20.0102 23.3503 20.4994 23.5141 21.007C23.6892 21.564 23.8275 22.1319 23.9281 22.707C24.0327 23.2776 24.1068 23.8535 24.1501 24.432V24.432C24.188 24.968 24.2071 25.532 24.2071 26.098C24.2671 27.0344 23.9239 27.9519 23.264 28.619L23.268 28.618Z" fill="white"/>
<path d="M25.9261 24.307L25.577 24.333L25.6055 24.7159L25.9842 24.6522L25.9261 24.307ZM25.68 22.392L25.3353 22.4526L25.3358 22.4551L25.68 22.392ZM25.209 20.466L25.5428 20.3607L25.5422 20.359L25.209 20.466ZM24.417 18.666L24.1113 18.8365L24.113 18.8393L24.417 18.666ZM23.224 17.11L23.468 16.859L23.4637 16.855L23.224 17.11ZM21.5091 16.033L21.3826 16.3594L21.3834 16.3597L21.5091 16.033ZM19.32 15.633L19.3172 15.283L19.3003 15.2832L19.2835 15.2849L19.32 15.633ZM18.133 16.133L18.3241 16.4262L18.341 16.4152L18.3565 16.4024L18.133 16.133ZM16.8971 16.933L17.0759 17.2342L17.0871 17.2269L16.8971 16.933ZM15.297 17.633L15.1973 17.2973L15.1868 17.3008L15.297 17.633ZM11.385 17.633L11.4953 17.3007L11.4846 17.2975L11.385 17.633ZM9.78506 16.933L9.59648 17.2281L9.60618 17.2339L9.78506 16.933ZM8.54806 16.133L8.32446 16.4023L8.33929 16.4146L8.35538 16.4252L8.54806 16.133ZM7.36203 15.633L7.39867 15.2849L7.38186 15.2832L7.36497 15.283L7.36203 15.633ZM5.17306 16.033L5.29864 16.3597L5.29959 16.3594L5.17306 16.033ZM3.45804 17.11L3.21829 16.8549L3.21409 16.859L3.45804 17.11ZM2.26504 18.665L2.56916 18.8383L2.57064 18.8356L2.26504 18.665ZM1.47305 20.465L1.13986 20.3578L1.13926 20.3597L1.47305 20.465ZM1.00204 22.39L1.34629 22.4533L1.34673 22.4508L1.00204 22.39ZM0.756071 24.306L0.407017 24.2802L0.406905 24.2819L0.756071 24.306ZM0.695036 26.096L1.04469 26.1116L1.04504 26.1038V26.096H0.695036ZM2.19003 29.904L1.94416 30.1535L1.9542 30.1626L2.19003 29.904ZM6.04202 31.304V30.954H6.03464L6.02727 30.9544L6.04202 31.304ZM20.641 31.304L20.6557 30.9544L20.6484 30.954H20.641V31.304ZM24.493 29.904L24.729 30.1628L24.7383 30.1537L24.493 29.904ZM25.993 26.096H25.643V26.1037L25.6433 26.1113L25.993 26.096ZM25.932 24.306L26.2812 24.2818L26.2545 23.8968L25.8739 23.9609L25.932 24.306ZM23.268 28.618L23.5013 28.8789L23.1855 28.2779L23.268 28.618ZM20.641 29.534L20.6615 29.1846L20.6513 29.184H20.641V29.534ZM6.04703 29.534V29.184H6.03673L6.02644 29.1846L6.04703 29.534ZM3.42001 28.619L3.17113 28.8651L3.17874 28.8728L3.18682 28.88L3.42001 28.619ZM2.47702 26.098L2.82631 26.1203L2.82702 26.1092V26.098H2.47702ZM2.53305 24.431L2.184 24.4051L2.18387 24.407L2.53305 24.431ZM2.75503 22.706L3.09928 22.7693L3.09979 22.7664L2.75503 22.706ZM3.16904 21.006L2.83597 20.8984L2.83514 20.9011L3.16904 21.006ZM3.81302 19.546L4.11705 19.7194L4.11899 19.7159L3.81302 19.546ZM4.69003 18.396L4.4515 18.1397L4.4452 18.1459L4.69003 18.396ZM5.83102 17.687L5.95512 18.0143L5.9562 18.0139L5.83102 17.687ZM7.23105 17.417L7.39543 17.108L7.31585 17.0657L7.22572 17.0671L7.23105 17.417ZM7.58304 17.63L7.77423 17.3368L7.76987 17.334L7.58304 17.63ZM8.83401 18.437L8.6451 18.7318L8.65203 18.736L8.83401 18.437ZM10.841 19.337L10.9506 19.0045L10.9432 19.0022L10.841 19.337ZM15.841 19.337L15.7389 19.0021L15.7314 19.0046L15.841 19.337ZM17.8501 18.437L18.032 18.7361L18.0367 18.7331L17.8501 18.437ZM19.1001 17.631L19.2912 17.9242L19.2916 17.9239L19.1001 17.631ZM19.4521 17.418L19.4575 17.068L19.3672 17.0666L19.2876 17.1091L19.4521 17.418ZM20.852 17.688L20.7269 18.0149L20.7278 18.0152L20.852 17.688ZM21.993 18.397L22.2378 18.1467L22.2314 18.1407L21.993 18.397ZM22.87 19.547L22.5639 19.7168L22.5661 19.7206L22.87 19.547ZM23.5141 21.007L23.848 20.9021L23.8472 20.8996L23.5141 21.007ZM23.9281 22.707L23.5833 22.7673L23.5838 22.7701L23.9281 22.707ZM24.2071 26.098H23.8571V26.1092L23.8578 26.1204L24.2071 26.098ZM23.264 28.619L23.0152 28.3728L22.1476 29.2499L23.3465 28.9591L23.264 28.619ZM26.2751 24.2811C26.2264 23.6263 26.1427 22.9746 26.0243 22.3289L25.3358 22.4551C25.4497 23.0763 25.5302 23.7032 25.577 24.333L26.2751 24.2811ZM26.0247 22.3314C25.9075 21.6646 25.7465 21.0063 25.5428 20.3607L24.8752 20.5713C25.0697 21.1877 25.2234 21.8161 25.3353 22.4526L26.0247 22.3314ZM25.5422 20.359C25.3338 19.7102 25.0586 19.0847 24.7211 18.4927L24.113 18.8393C24.4265 19.3893 24.6821 19.9704 24.8758 20.5731L25.5422 20.359ZM24.7227 18.4955C24.3861 17.892 23.9634 17.3408 23.468 16.8591L22.98 17.361C23.4267 17.7953 23.8078 18.2923 24.1114 18.8365L24.7227 18.4955ZM23.4637 16.855C22.9342 16.3573 22.313 15.9672 21.6347 15.7064L21.3834 16.3597C21.9771 16.588 22.5208 16.9295 22.9843 17.3651L23.4637 16.855ZM21.6355 15.7067C20.8964 15.4203 20.1097 15.2766 19.3172 15.283L19.3229 15.983C20.027 15.9773 20.726 16.105 21.3826 16.3594L21.6355 15.7067ZM19.2835 15.2849C18.7784 15.338 18.3003 15.5394 17.9095 15.8637L18.3565 16.4024C18.641 16.1663 18.989 16.0197 19.3566 15.9811L19.2835 15.2849ZM17.9419 15.8398C17.5867 16.0713 17.1718 16.3386 16.707 16.6391L17.0871 17.2269C17.5503 16.9274 17.9675 16.6587 18.3241 16.4262L17.9419 15.8398ZM16.7183 16.6321C16.2407 16.9158 15.7298 17.1393 15.1974 17.2975L15.3967 17.9685C15.9846 17.7939 16.5485 17.5471 17.0758 17.234L16.7183 16.6321ZM15.1868 17.3008C13.9884 17.6986 12.6937 17.6986 11.4953 17.3008L11.2748 17.9652C12.6163 18.4104 14.0657 18.4104 15.4073 17.9652L15.1868 17.3008ZM11.4846 17.2975C10.9521 17.1395 10.4413 16.916 9.96394 16.6322L9.60618 17.2339C10.1334 17.5473 10.6975 17.7941 11.2855 17.9686L11.4846 17.2975ZM9.97355 16.6381C9.51392 16.3444 9.09959 16.0775 8.74075 15.8408L8.35538 16.4252C8.71847 16.6646 9.13616 16.9337 9.59658 17.228L9.97355 16.6381ZM8.77167 15.8638C8.38122 15.5395 7.90345 15.3381 7.39867 15.2849L7.32539 15.9811C7.69268 16.0198 8.04034 16.1663 8.32446 16.4023L8.77167 15.8638ZM7.36497 15.283C6.57229 15.2764 5.78562 15.4201 5.04653 15.7067L5.29959 16.3594C5.95614 16.1048 6.65494 15.9771 7.35909 15.983L7.36497 15.283ZM5.04749 15.7063C4.3691 15.9671 3.74788 16.3572 3.21832 16.855L3.69775 17.365C4.16123 16.9294 4.70493 16.5879 5.29864 16.3597L5.04749 15.7063ZM3.21409 16.859C2.71882 17.3404 2.29613 17.8913 1.95944 18.4944L2.57064 18.8356C2.87422 18.2918 3.25536 17.7951 3.70199 17.361L3.21409 16.859ZM1.96094 18.4917C1.6236 19.0838 1.34848 19.7092 1.13986 20.3578L1.80624 20.5722C2.00009 19.9694 2.25573 19.3884 2.56915 18.8383L1.96094 18.4917ZM1.13926 20.3597C0.935744 21.005 0.774754 21.6629 0.657352 22.3293L1.34673 22.4508C1.45882 21.8145 1.61253 21.1864 1.80684 20.5703L1.13926 20.3597ZM0.6578 22.3268C0.539135 22.9729 0.455374 23.625 0.407021 24.2802L1.10512 24.3318C1.15162 23.7017 1.23216 23.0747 1.34629 22.4533L0.6578 22.3268ZM0.406905 24.2819C0.366303 24.869 0.345036 25.4791 0.345036 26.096H1.04504C1.04504 25.495 1.06576 24.901 1.10524 24.3301L0.406905 24.2819ZM0.345382 26.0805C0.277686 27.6032 0.858741 29.0833 1.94434 30.1533L2.43572 29.6547C1.49129 28.7239 0.985799 27.4363 1.04469 26.1116L0.345382 26.0805ZM1.9542 30.1626C3.07145 31.1815 4.5461 31.7174 6.05677 31.6537L6.02727 30.9544C4.70115 31.0103 3.40664 30.5398 2.42587 29.6454L1.9542 30.1626ZM6.04202 31.654H20.641V30.954H6.04202V31.654ZM20.6263 31.6537C22.137 31.7173 23.6116 31.1814 24.7288 30.1626L24.2572 29.6454C23.2764 30.5397 21.982 31.0102 20.6557 30.9544L20.6263 31.6537ZM24.7383 30.1537C25.8262 29.0847 26.4093 27.6044 26.3427 26.0808L25.6433 26.1113C25.7013 27.4367 25.194 28.7245 24.2477 29.6544L24.7383 30.1537ZM26.343 26.096C26.343 25.4771 26.3217 24.867 26.2812 24.2818L25.5829 24.3302C25.6223 24.899 25.643 25.4929 25.643 26.096H26.343ZM25.8739 23.9609L25.8679 23.9619L25.9842 24.6522L25.9901 24.6512L25.8739 23.9609ZM23.0347 28.3571C22.3853 28.9378 21.5312 29.2356 20.6615 29.1846L20.6205 29.8834C21.6763 29.9453 22.713 29.5838 23.5013 28.8789L23.0347 28.3571ZM20.641 29.184H6.04703V29.884H20.641V29.184ZM6.02644 29.1846C5.1569 29.2359 4.3028 28.9384 3.65321 28.358L3.18682 28.88C3.97534 29.5845 5.0121 29.9456 6.06761 29.8834L6.02644 29.1846ZM3.6689 28.3729C3.07941 27.7767 2.7728 26.957 2.82631 26.1203L2.12773 26.0757C2.06148 27.1118 2.44116 28.1268 3.17113 28.8651L3.6689 28.3729ZM2.82702 26.098C2.82702 25.5377 2.84581 24.9847 2.88222 24.455L2.18387 24.407C2.14632 24.9533 2.12702 25.5223 2.12702 26.098H2.82702ZM2.88209 24.4569C2.92413 23.8909 2.99662 23.3276 3.09926 22.7693L2.4108 22.6427C2.30361 23.2257 2.22791 23.814 2.18401 24.4051L2.88209 24.4569ZM3.09979 22.7664C3.1978 22.2063 3.33248 21.6533 3.50293 21.1109L2.83514 20.9011C2.6555 21.4727 2.51356 22.0555 2.41027 22.6457L3.09979 22.7664ZM3.50209 21.1136C3.65864 20.629 3.86467 20.1618 4.11703 19.7194L3.50901 19.3726C3.2328 19.8567 3.00731 20.368 2.83598 20.8984L3.50209 21.1136ZM4.11899 19.7159C4.33788 19.3218 4.61269 18.9615 4.93486 18.6461L4.4452 18.1459C4.07474 18.5085 3.75874 18.9229 3.50704 19.376L4.11899 19.7159ZM4.92849 18.6522C5.2262 18.3751 5.57487 18.1585 5.95512 18.0143L5.70693 17.3597C5.24196 17.5361 4.81561 17.801 4.45158 18.1398L4.92849 18.6522ZM5.9562 18.0139C6.36519 17.8572 6.7985 17.7736 7.23638 17.767L7.22572 17.0671C6.70583 17.075 6.19139 17.1742 5.70584 17.3602L5.9562 18.0139ZM7.06666 17.726C7.11544 17.752 7.21573 17.812 7.39621 17.926L7.76987 17.334C7.59231 17.2219 7.47068 17.1481 7.39543 17.108L7.06666 17.726ZM7.39186 17.9232C7.75803 18.1619 8.17997 18.4335 8.64515 18.7317L9.02287 18.1423C8.55812 17.8445 8.13803 17.5741 7.77421 17.3368L7.39186 17.9232ZM8.65203 18.736C9.3058 19.1339 10.0069 19.4483 10.7389 19.6718L10.9432 19.0022C10.2672 18.7959 9.61979 18.5056 9.016 18.138L8.65203 18.736ZM10.7315 19.6694C12.4263 20.2281 14.2558 20.2281 15.9506 19.6694L15.7314 19.0046C14.179 19.5164 12.5032 19.5164 10.9506 19.0046L10.7315 19.6694ZM15.9431 19.6718C16.6757 19.4484 17.3775 19.1341 18.0319 18.736L17.6682 18.138C17.0637 18.5056 16.4156 18.7959 15.739 19.0022L15.9431 19.6718ZM18.0367 18.7331C18.5154 18.4313 18.9269 18.1617 19.2912 17.9242L18.9089 17.3378C18.5431 17.5763 18.1366 17.8426 17.6634 18.1409L18.0367 18.7331ZM19.2916 17.9239C19.4632 17.8118 19.5651 17.7543 19.6166 17.7269L19.2876 17.1091C19.215 17.1477 19.0949 17.2162 18.9085 17.3381L19.2916 17.9239ZM19.4467 17.768C19.8846 17.7747 20.3179 17.8583 20.7269 18.0149L20.9772 17.3612C20.4916 17.1752 19.9773 17.0761 19.4575 17.068L19.4467 17.768ZM20.7278 18.0152C21.1081 18.1596 21.4568 18.3763 21.7547 18.6533L22.2314 18.1407C21.8673 17.8021 21.441 17.5373 20.9763 17.3608L20.7278 18.0152ZM21.7483 18.6472C22.0706 18.9624 22.3453 19.3227 22.564 19.7168L23.1761 19.3772C22.9245 18.9238 22.6085 18.5093 22.2377 18.1468L21.7483 18.6472ZM22.5661 19.7206C22.8186 20.1627 23.0246 20.6299 23.181 21.1145L23.8472 20.8996C23.676 20.369 23.4504 19.8576 23.174 19.3735L22.5661 19.7206ZM23.1802 21.112C23.3507 21.6543 23.4854 22.2073 23.5833 22.7673L24.2728 22.6467C24.1696 22.0565 24.0277 21.4737 23.848 20.9021L23.1802 21.112ZM23.5838 22.7701C23.6862 23.3285 23.7587 23.892 23.801 24.4581L24.4991 24.406C24.4549 23.815 24.3792 23.2268 24.2723 22.6439L23.5838 22.7701ZM23.8009 24.4568C23.8383 24.984 23.8571 25.5397 23.8571 26.098H24.5571C24.5571 25.5244 24.5378 24.9521 24.4992 24.4073L23.8009 24.4568ZM23.8578 26.1204C23.9114 26.9571 23.6048 27.7768 23.0152 28.3728L23.5128 28.8651C24.2431 28.1269 24.6227 27.1118 24.5563 26.0756L23.8578 26.1204ZM23.3465 28.9591L23.3505 28.9581L23.1855 28.2779L23.1815 28.2788L23.3465 28.9591Z" fill="white"/>
</g>
</svg>
